# xmcd CD database file generated by Grip 3.2.0
# 
# Track frame offsets:
#       150
#       20362
#       38205
#       40327
#       59347
#       81007
#       98520
#       104445
#       123205
#       145477
#       148668
#       166207
# 
# Disc length: 2428 seconds
# 
# Revision: 3
# Processed by: cddbd v1.5.2PL0 Copyright (c) Steve Scherf et al.
# Submitted via: Grip 3.2.0
# 
DISCID=9c097a0c
DTITLE=ave;new - inlay
DYEAR=2004
DGENRE=JPop
TTITLE0=大咲美和/velvety -inlay mix-
TTITLE1=佐倉紗織/kiss my lips
TTITLE2=interlude -gold-
TTITLE3=YU-KI and Kent/bedew
TTITLE4=YU-KI/FUTARI
TTITLE5=Phatill and Kent/Confidence
TTITLE6=interlude -white-
TTITLE7=佐倉紗織/snow of love -inlay mix-
TTITLE8=大咲美和/Relieve
TTITLE9=interlude -pink-
TTITLE10=井上みゆ/きゃんでぃ☆デート!!
TTITLE11=井上みゆ/夏だねっCHU☆アイス!!
EXTD=YEAR: 2004
EXTT0=
EXTT1=
EXTT2=
EXTT3=
EXTT4=
EXTT5=
EXTT6=
EXTT7=
EXTT8=
EXTT9=
EXTT10=
EXTT11=
PLAYORDER=
